<svg width="100" height="100" viewBox="0 0 100 100" fill="none" xmlns="http://www.w3.org/2000/svg">
<rect width="100" height="100" rx="15" fill="#252831"/>
<path d="M38.348 59.228V43.7273H47.0128V71H38.7386V65.9219H38.4545C37.8509 67.5909 36.821 68.9167 35.3651 69.8991C33.9209 70.8698 32.175 71.3551 30.1271 71.3551C28.2687 71.3551 26.6352 70.929 25.2266 70.0767C23.8179 69.2244 22.723 68.0348 21.9418 66.5078C21.1605 64.969 20.764 63.1697 20.7521 61.1101V43.7273H29.4347V59.4055C29.4465 60.8852 29.8371 62.0511 30.6065 62.9034C31.3759 63.7557 32.4235 64.1818 33.7493 64.1818C34.6134 64.1818 35.3887 63.9924 36.0753 63.6136C36.7737 63.223 37.3241 62.6607 37.7266 61.9268C38.1409 61.1811 38.348 60.2815 38.348 59.228Z" fill="white"/>
<path d="M53.0273 71V31H62.6953V63.1484H79.3359V71H53.0273Z" fill="white"/>
</svg>
